<?xml version="1.0" standalone="no"?>
<!DOCTYPE svg PUBLIC "-//W3C//DTD SVG 20010904//EN"
 "http://www.w3.org/TR/2001/REC-SVG-20010904/DTD/svg10.dtd">
<svg version="1.0" xmlns="http://www.w3.org/2000/svg"
 width="326.000000pt" height="317.000000pt" viewBox="0 0 326.000000 317.000000"
 preserveAspectRatio="xMidYMid meet">

<g transform="translate(0.000000,317.000000) scale(0.100000,-0.100000)"
fill="#000000" stroke="none">
<path d="M1545 2372 c-16 -2 -66 -14 -109 -28 -55 -18 -82 -22 -89 -15 -6 6
-30 11 -54 11 -50 0 -65 -19 -62 -78 2 -30 -4 -47 -29 -78 -36 -45 -78 -145
-88 -210 -3 -24 -10 -46 -13 -49 -4 -2 -26 5 -48 16 -29 14 -51 18 -75 14 -59
-11 -65 -20 -31 -49 38 -32 63 -108 63 -190 0 -55 4 -68 33 -109 31 -44 33
-50 26 -99 -21 -147 -4 -212 76 -290 l45 -43 -6 -67 -7 -67 -156 -64 c-86 -35
-171 -70 -189 -77 -39 -15 -71 -11 -220 30 l-114 30 -115 -97 c-63 -54 -123
-104 -134 -112 -16 -11 -19 -26 -19 -95 0 -78 -1 -84 -30 -111 l-30 -29 3
-182 2 -183 112 0 c95 1 113 3 113 16 0 12 7 14 32 9 93 -20 153 -26 251 -26
100 0 107 1 107 20 0 25 12 25 35 0 13 -15 31 -20 67 -20 26 0 48 3 48 8 0 4
-22 31 -50 61 -27 29 -61 67 -75 84 l-26 32 1 213 1 213 67 30 c81 37 147 66
187 84 17 7 61 27 98 44 76 34 108 38 127 16 7 -8 19 -15 26 -15 8 0 14 -4 14
-8 0 -5 24 -21 54 -35 89 -44 228 -58 361 -38 77 11 103 22 192 77 81 51 75
51 188 -1 38 -18 88 -40 110 -49 22 -9 79 -36 128 -59 l87 -42 0 -66 c0 -36 3
-133 6 -215 l6 -149 -34 -35 c-44 -47 -118 -136 -118 -144 0 -3 20 -6 43 -6
32 0 52 7 73 25 l29 25 3 -25 c3 -25 4 -25 105 -25 93 0 153 6 245 26 25 5 32
3 32 -9 0 -13 20 -15 125 -16 l125 0 0 49 c0 28 -4 50 -10 50 -5 0 -10 20 -10
44 0 25 5 48 10 51 6 3 10 35 10 71 0 66 -22 118 -64 153 -12 10 -16 32 -17
90 l-1 76 -119 114 -119 114 -107 -33 c-156 -49 -174 -47 -392 38 -101 39
-189 76 -195 82 -18 18 -20 155 -3 198 8 20 18 88 22 149 6 93 11 115 27 130
42 38 50 68 38 150 -13 98 -2 140 50 187 51 46 44 60 -24 52 l-52 -7 -12 53
c-30 130 -144 292 -246 352 -71 42 -212 68 -311 58z m-218 -58 c24 -7 63 -61
63 -87 0 -23 -49 -77 -69 -77 -22 0 -41 58 -41 124 0 48 4 51 47 40z m441 -36
c53 -13 60 -24 34 -51 -20 -22 -27 -48 -24 -98 3 -49 58 -89 122 -89 32 0 60
30 60 65 1 18 3 17 25 -8 27 -31 65 -142 65 -192 0 -28 -3 -32 -20 -28 -12 3
-20 0 -20 -8 0 -21 32 -49 57 -49 21 0 22 -2 12 -21 -8 -15 -8 -28 -1 -44 8
-17 7 -36 -4 -71 -8 -26 -14 -62 -14 -80 0 -48 -16 -81 -46 -97 l-28 -14 22
-12 c20 -11 22 -20 22 -97 l0 -84 -41 -45 c-39 -42 -142 -120 -232 -174 -38
-23 -39 -23 -84 -6 -37 14 -52 15 -82 7 -20 -6 -45 -14 -56 -16 -12 -4 -40 6
-70 24 -194 117 -247 162 -277 240 -23 58 -25 185 -3 206 20 21 19 34 -4 34
-11 0 -29 12 -41 27 -17 22 -20 36 -16 68 3 22 7 66 9 98 3 49 9 63 35 90 35
36 40 52 17 61 -16 6 -21 51 -6 60 5 3 12 18 16 33 3 16 18 48 32 71 24 43 25
43 40 23 30 -44 115 -14 149 51 10 20 14 45 11 69 -5 38 -5 38 42 53 25 8 62
17 81 19 50 6 168 -2 218 -15z m153 -49 c34 -24 37 -44 8 -60 -17 -9 -19 -13
-8 -19 21 -14 -5 -60 -34 -60 -34 0 -77 37 -77 65 0 30 22 49 38 33 9 -9 12
-5 12 18 0 50 15 56 61 23z m69 -1163 c0 -42 -3 -46 -49 -75 -88 -57 -144 -78
-237 -92 -71 -10 -104 -10 -149 -1 -32 7 -70 12 -85 12 -30 0 -88 26 -172 77
-55 33 -58 37 -58 74 0 21 5 39 11 39 10 0 148 -62 224 -102 47 -24 146 -34
195 -20 46 13 170 67 240 102 75 39 80 38 80 -14z m-1280 -521 c0 -257 -6
-318 -30 -310 -9 3 -60 9 -115 14 -54 6 -102 14 -106 18 -5 5 -3 28 5 54 7 24
21 112 30 194 10 83 22 182 28 221 l10 71 89 -26 89 -26 0 -210z m2143 188
l70 -58 -7 -149 c-3 -82 -6 -178 -6 -214 0 -62 -1 -64 -22 -57 -13 5 -41 9
-63 11 -22 1 -46 2 -52 3 -9 1 -10 8 -4 24 5 13 7 130 4 260 -3 131 -2 237 2
237 4 0 39 -26 78 -57z"/>
<path d="M1535 1964 c-47 -17 -118 -71 -109 -85 3 -5 12 -5 24 1 10 5 43 13
74 16 59 7 76 21 76 63 0 24 -10 25 -65 5z"/>
<path d="M1717 1912 c-10 -10 -17 -23 -17 -29 0 -13 89 -103 102 -103 17 0 -1
72 -28 113 -28 42 -34 44 -57 19z"/>
<path d="M1511 1870 c-71 -17 -118 -75 -107 -133 17 -86 116 -125 193 -77 l33
20 36 -25 c50 -34 88 -32 125 5 60 59 14 125 -85 124 -49 0 -54 2 -63 27 -18
47 -74 72 -132 59z m94 -50 c23 -25 24 -94 1 -119 -21 -23 -86 -34 -120 -21
-14 5 -32 23 -41 40 -14 28 -14 33 0 64 19 40 46 54 101 55 29 1 46 -5 59 -19z
m160 -76 c30 -20 32 -45 5 -69 -17 -16 -25 -17 -59 -7 -51 16 -64 32 -51 66 8
21 16 26 45 26 20 0 47 -7 60 -16z"/>
<path d="M1513 1764 c-6 -17 6 -45 23 -51 5 -2 19 3 29 11 16 12 18 18 9 33
-15 24 -52 29 -61 7z"/>
<path d="M1694 1736 c-15 -12 -17 -18 -8 -33 24 -39 65 -14 48 31 -8 20 -15
20 -40 2z"/>
<path d="M1600 1562 c0 -5 6 -15 14 -22 34 -28 -35 -71 -71 -45 -16 12 -16 17
-5 35 7 12 11 25 7 28 -12 13 -40 -16 -43 -45 -2 -23 3 -34 23 -47 22 -15 31
-15 62 -4 19 7 44 24 54 37 17 21 18 27 5 45 -14 22 -46 34 -46 18z"/>
<path d="M1399 1371 c-29 -29 -39 -74 -19 -86 6 -3 10 -26 10 -50 0 -36 5 -48
28 -65 37 -30 107 -23 139 14 12 14 30 26 40 26 13 0 14 3 5 12 -18 18 -15 26
11 31 20 3 19 4 -8 11 -61 16 -62 16 -41 32 11 8 28 12 37 9 10 -3 21 0 25 6
5 9 2 10 -11 6 -18 -7 -18 2 0 46 9 22 -14 23 -30 0 -12 -15 -15 -15 -45 10
-45 38 -101 37 -141 -2z m119 -17 c22 -15 30 -48 13 -59 -6 -3 -4 -17 5 -33
14 -26 13 -28 -16 -54 -35 -32 -56 -35 -89 -12 -18 13 -22 22 -17 47 3 16 1
36 -5 43 -41 50 51 109 109 68z"/>
<path d="M1469 1292 c-21 -2 -28 -10 -31 -33 -4 -27 -2 -29 28 -29 27 0 33 4
37 28 7 33 0 39 -34 34z"/>
<path d="M1033 648 c-6 -13 -15 -34 -21 -48 -6 -14 -25 -56 -41 -93 -17 -38
-31 -75 -31 -82 0 -8 -4 -17 -10 -20 -17 -11 -11 -57 23 -155 l32 -95 130 -3
c72 -1 157 2 190 8 71 12 185 35 235 47 l35 9 2 169 c3 185 -11 210 -23 41 -4
-53 -11 -96 -16 -96 -6 0 -7 40 -3 105 5 71 4 105 -3 105 -6 0 -13 -8 -16 -17
-5 -16 -25 -147 -26 -165 0 -5 -7 -8 -15 -8 -22 0 -19 -11 20 -65 19 -27 33
-50 32 -51 -1 -1 -36 -7 -77 -13 -226 -33 -320 -45 -365 -45 -46 -1 -49 1 -56
29 -4 17 -13 50 -19 75 -6 25 -13 53 -16 63 -5 17 4 18 175 11 134 -5 181 -4
181 4 0 7 -3 12 -7 12 -5 0 -37 7 -73 14 -36 8 -101 17 -145 20 -130 11 -128
10 -121 58 4 23 10 46 14 52 13 21 41 111 42 134 0 12 -4 22 -8 22 -5 0 -13
-10 -19 -22z"/>
<path d="M2176 624 c3 -16 19 -67 35 -113 16 -46 26 -88 23 -92 -3 -5 -22 -9
-42 -9 -49 0 -310 -38 -324 -46 -34 -21 129 -21 325 0 26 3 47 2 47 -3 0 -14
-40 -166 -50 -188 -9 -21 -7 -23 18 -23 26 0 30 5 60 98 36 110 38 136 18 178
-8 16 -31 66 -50 112 -39 90 -73 138 -60 86z"/>
<path d="M1646 539 c-3 -17 -3 -97 1 -179 l6 -148 36 -11 c20 -6 68 -15 106
-22 39 -6 93 -15 120 -19 66 -11 258 -12 251 -1 -3 4 -34 11 -68 15 -35 4
-101 13 -148 21 -47 8 -120 20 -162 26 -43 7 -78 15 -78 19 0 4 14 26 30 48
35 49 37 58 11 65 -15 4 -21 17 -26 63 -9 83 -26 145 -38 137 -6 -3 -8 -44 -4
-107 4 -68 3 -88 -3 -61 -5 22 -9 70 -9 107 -1 71 -15 98 -25 47z"/>
</g>
</svg>
